<?xml version="1.0" encoding="UTF-8" standalone="no"?>
<!-- Created with Inkscape (http://www.inkscape.org/) -->

<svg
   viewBox="0 60 270 150"
   version="1.1"
   id="svg5"
   inkscape:version="1.1 (c68e22c387, 2021-05-23)"
   sodipodi:docname="BriskettLogo.svg"
   xmlns:inkscape="http://www.inkscape.org/namespaces/inkscape"
   xmlns:sodipodi="http://sodipodi.sourceforge.net/DTD/sodipodi-0.dtd"
   xmlns="http://www.w3.org/2000/svg"
   xmlns:svg="http://www.w3.org/2000/svg">
  <sodipodi:namedview
     id="namedview7"
     pagecolor="#505050"
     bordercolor="#eeeeee"
     borderopacity="1"
     inkscape:pageshadow="0"
     inkscape:pageopacity="0"
     inkscape:pagecheckerboard="0"
     inkscape:document-units="mm"
     showgrid="false"
     inkscape:snap-object-midpoints="false"
     units="px"
     height="1024px"
     inkscape:zoom="0.40567375"
     inkscape:cx="23.417833"
     inkscape:cy="523.81994"
     inkscape:window-width="1920"
     inkscape:window-height="1017"
     inkscape:window-x="-8"
     inkscape:window-y="-8"
     inkscape:window-maximized="1"
     inkscape:current-layer="layer1" />
  <defs
     id="defs2">
    <pattern
       id="EMFhbasepattern"
       patternUnits="userSpaceOnUse"
       width="6"
       height="6"
       x="0"
       y="0" />
  </defs>
  <g
     inkscape:label="Layer 1"
     inkscape:groupmode="layer"
     id="layer1">
    <path
       style="fill:#ccb495;fill-opacity:1;fill-rule:nonzero;stroke:none;stroke-width:0.239421"
       d="m 17.591415,202.66433 c -5.746124,0 -10.3749351,-4.62882 -10.3749351,-10.37494 0,-38.54688 0,-38.54688 0,-38.54688 0,-5.66631 4.6288111,-10.37493 10.3749351,-10.37493 235.750505,0 235.750505,0 235.750505,0 5.66632,0 10.37493,4.70862 10.37493,10.37493 0,38.54688 0,38.54688 0,38.54688 0,5.74612 -4.70861,10.37494 -10.37493,10.37494 z"
       id="path12" />
    <path
       style="fill:#543418;fill-opacity:1;fill-rule:nonzero;stroke:none;stroke-width:0.239421"
       d="m 253.34192,145.44256 c 4.54901,0 8.29996,3.75094 8.29996,8.29995 0,38.54689 0,38.54689 0,38.54689 0,4.54901 -3.75095,8.29995 -8.29996,8.29995 -235.750505,0 -235.750505,0 -235.750505,0 -4.628816,0 -8.2999526,-3.75094 -8.2999526,-8.29995 0,-38.54688 0,-38.54688 0,-38.54688 0,-4.54901 3.6711366,-8.29995 8.2999526,-8.29995 235.750505,0 235.750505,0 235.750505,0 m 0,-4.14997 c -235.750505,0 -235.750505,0 -235.750505,0 -6.863423,0 -12.4499266,5.5865 -12.4499266,12.44992 0,38.54688 0,38.54688 0,38.54688 0,6.86342 5.5865036,12.44993 12.4499266,12.44993 235.750505,0 235.750505,0 235.750505,0 6.86343,0 12.44993,-5.58651 12.44993,-12.44993 0,-38.54688 0,-38.54688 0,-38.54688 0,-6.86342 -5.5865,-12.44992 -12.44993,-12.44992 z"
       id="path14" />
    <path
       style="fill:#7d5032;fill-opacity:1;fill-rule:nonzero;stroke:none;stroke-width:0.239421"
       d="m 255.57651,138.81856 c 0,49.00163 0,49.00163 0,49.00163 0,3.27209 -2.71343,5.90573 -5.90571,5.90573 -41.65938,0 -41.65938,0 -41.65938,0 -3.19229,0 -5.90573,-2.63364 -5.90573,-5.90573 0,-49.00163 0,-49.00163 0,-49.00163 0,-1.1971 0.95769,-2.15479 2.15479,-2.15479 49.16124,0 49.16124,0 49.16124,0 1.19711,0 2.15479,0.95769 2.15479,2.15479 z"
       id="path16" />
    <path
       style="fill:#996f3a;fill-opacity:1;fill-rule:nonzero;stroke:none;stroke-width:0.239421"
       d="m 249.83039,183.67022 c -41.97858,0 -41.97858,0 -41.97858,0 -3.19228,0 -5.74612,2.55382 -5.74612,5.74612 0,1.11729 0,1.11729 0,1.11729 0,3.11248 2.55384,5.74612 5.74612,5.74612 41.97858,0 41.97858,0 41.97858,0 3.19231,0 5.74612,-2.63364 5.74612,-5.74612 0,-1.11729 0,-1.11729 0,-1.11729 0,-3.1923 -2.55381,-5.74612 -5.74612,-5.74612 z"
       id="path18" />
    <path
       style="fill:#543418;fill-opacity:1;fill-rule:nonzero;stroke:none;stroke-width:0.239421"
       d="m 255.57651,138.25991 c 0,49.56028 0,49.56028 0,49.56028 0,3.2721 -2.71343,5.90573 -5.90571,5.90573 -41.65938,0 -41.65938,0 -41.65938,0 -3.19229,0 -5.90573,-2.63363 -5.90573,-5.90573 0,-49.56028 0,-49.56028 0,-49.56028 0,-0.95768 0.79808,-1.75576 1.83557,-1.75576 49.79971,0 49.79971,0 49.79971,0 1.03748,0 1.83554,0.79808 1.83554,1.75576 z"
       id="path20" />
    <path
       style="fill:#7d5032;fill-opacity:1;fill-rule:nonzero;stroke:none;stroke-width:0.239421"
       d="m 252.70345,139.53683 c 0,46.12857 0,46.12857 0,46.12857 0,2.95287 -2.39421,5.26728 -5.26727,5.26728 -37.19015,0 -37.19015,0 -37.19015,0 -2.87306,0 -5.26728,-2.31441 -5.26728,-5.26728 0,-46.12857 0,-46.12857 0,-46.12857 0,-0.95769 0.79808,-1.75576 1.75576,-1.75576 44.21319,0 44.21319,0 44.21319,0 0.95769,0 1.75575,0.79807 1.75575,1.75576 z"
       id="path22" />
    <path
       style="fill:#543418;fill-opacity:1;fill-rule:nonzero;stroke:none;stroke-width:0.239421"
       d="m 50.6316,170.74145 c -0.718265,-0.31923 -1.516337,-0.55865 -2.474023,-0.79808 0,-0.0798 0,-0.0798 0,-0.0798 4.229782,-1.1173 5.905735,-3.91056 6.145156,-7.90091 0,-0.31923 0,-0.63846 0,-1.0375 0,-5.74612 -3.671133,-10.85378 -15.243179,-10.85378 -14.365298,0 -14.365298,0 -14.365298,0 -5.267275,0 -7.821106,2.39422 -7.821106,8.14034 0,26.73542 0,26.73542 0,26.73542 0,5.74612 2.553831,8.22015 7.821106,8.22015 15.322986,0 15.322986,0 15.322986,0 10.534551,0 15.642212,-5.18747 16.121056,-11.81147 0,0 0,0 0,0 0,-0.31923 0,-0.55865 0,-0.87788 0,-4.46921 -1.835565,-8.06053 -5.506698,-9.73648 z m -9.497057,-6.22497 c -0.319231,1.67595 -1.75576,3.03269 -4.070168,3.03269 -6.783614,0 -6.783614,0 -6.783614,0 0,-7.82111 0,-7.82111 0,-7.82111 6.783614,0 6.783614,0 6.783614,0 2.952867,0 4.149974,1.59614 4.149974,3.99036 0,0.23942 0,0.55865 -0.0798,0.79806 z m 1.516336,15.72204 c -0.478843,2.15478 -2.553832,3.19228 -5.506697,3.19228 -6.863421,0 -6.863421,0 -6.863421,0 0,-8.29996 0,-8.29996 0,-8.29996 6.863421,0 6.863421,0 6.863421,0 3.351902,0 5.586504,1.27692 5.586504,4.14997 0,0.31924 0,0.63847 -0.0798,0.9577 z"
       id="path24" />
    <path
       style="fill:#543418;fill-opacity:1;fill-rule:nonzero;stroke:none;stroke-width:0.239421"
       d="m 88.69964,185.74521 c -0.319228,-2.47402 -0.319228,-2.47402 -0.319228,-2.47402 -0.319228,-1.99519 -1.197109,-3.19229 -2.633639,-3.83075 0,0 0,0 0,0 -0.79807,-0.31923 -1.835566,-0.55865 -2.952865,-0.63845 0,-0.0798 0,-0.0798 0,-0.0798 3.431709,-0.63845 5.746119,-2.87306 6.065347,-6.22495 0,-0.31923 0.0798,-0.63846 0.0798,-0.9577 0,-4.62882 -3.351902,-8.53936 -10.694165,-8.53936 -10.694166,0 -10.694166,0 -10.694166,0 -4.149974,0 -5.905735,1.67595 -5.905735,5.74612 0,19.9518 0,19.9518 0,19.9518 0,3.19229 1.675952,5.02785 4.62882,5.02785 3.032673,0 4.708624,-1.83556 4.708624,-5.02785 0,-6.30478 0,-6.30478 0,-6.30478 3.830747,0 3.830747,0 3.830747,0 2.234603,0 3.910554,0.71827 4.229782,3.19229 0.399037,3.99036 0.399037,3.99036 0.399037,3.99036 0.399035,2.95287 2.55383,4.14997 5.347082,4.14997 1.835567,0 3.910553,-1.19711 4.229783,-3.11248 0.0798,-0.15961 0.0798,-0.39904 0.0798,-0.63846 0,-1.19711 -0.159615,-2.79324 -0.399037,-4.22977 z m -9.018214,-11.57205 c -0.31923,1.35671 -1.516338,1.99518 -3.830746,1.99518 -4.868242,0 -4.868242,0 -4.868242,0 0,-5.90574 0,-5.90574 0,-5.90574 4.868242,0 4.868242,0 4.868242,0 2.793251,0 3.910553,0.87788 3.910553,2.95288 0,0.31922 0,0.63845 -0.0798,0.95769 z"
       id="path26" />
    <path
       style="fill:#543418;fill-opacity:1;fill-rule:nonzero;stroke:none;stroke-width:0.239421"
       d="m 99.473616,162.44151 c -2.952872,0 -4.868242,1.99517 -4.868242,5.18746 0,20.90949 0,20.90949 0,20.90949 0,3.19229 1.91537,5.18747 4.868242,5.18747 2.952864,0 4.788424,-1.99518 4.788424,-5.18747 0,-20.90949 0,-20.90949 0,-20.90949 0,-3.19229 -1.83556,-5.18746 -4.788424,-5.18746 z"
       id="path28" />
    <path
       style="fill:#543418;fill-opacity:1;fill-rule:nonzero;stroke:none;stroke-width:0.239421"
       d="m 127.08691,174.652 c -4.94805,-1.35672 -4.94805,-1.35672 -4.94805,-1.35672 -1.43653,-0.39904 -2.47402,-0.79807 -2.95286,-1.51634 -0.15962,-0.23942 -0.23943,-0.55866 -0.23943,-0.95769 0,-1.35672 1.43653,-1.99518 3.11249,-1.99518 4.78843,0 4.78843,3.67114 8.06052,3.67114 2.07499,0 3.67114,-1.11731 4.07017,-2.95287 0.0798,-0.23942 0.0798,-0.55865 0.0798,-0.87788 0,-5.02786 -7.18266,-6.38458 -12.76917,-6.38458 -8.37975,0 -11.73166,4.70863 -11.73166,9.73648 0,0.31923 0,0.63845 0.0798,0.87788 0.31922,3.75094 2.87306,6.30477 7.42206,7.58169 6.38458,1.83556 6.38458,1.83556 6.38458,1.83556 1.75576,0.55865 2.63364,1.0375 2.63364,2.23461 0,0.39903 -0.0798,0.71826 -0.23942,1.03748 -0.47885,1.0375 -1.91538,1.51635 -3.51152,1.51635 -4.70863,0 -5.10766,-4.38941 -8.53937,-4.38941 -2.39422,0 -4.07017,1.51635 -4.07017,3.91056 0,0.23943 0,0.55865 0.0798,0.87788 0.63846,2.71344 4.07017,6.38458 13.1682,6.38458 6.06535,0 11.97108,-2.87306 12.44992,-9.33744 0,-0.31923 0.0798,-0.63847 0.0798,-0.9577 0,-5.26727 -3.51152,-7.58168 -8.61918,-8.9384 z"
       id="path30" />
    <path
       style="fill:#543418;fill-opacity:1;fill-rule:nonzero;stroke:none;stroke-width:0.239421"
       d="m 168.18762,186.38366 c -6.62399,-10.29513 -6.62399,-10.29513 -6.62399,-10.29513 -0.71826,-1.11731 -0.71826,-1.11731 -0.71826,-1.11731 4.46919,-5.02785 4.46919,-5.02785 4.46919,-5.02785 0.9577,-0.95768 1.51634,-1.59614 1.75576,-2.47402 0.0798,-0.31923 0.0798,-0.63846 0.0798,-0.95769 0,-1.83556 -1.67596,-4.07015 -4.22979,-4.07015 -1.59615,0 -2.55383,0.79806 -4.38939,2.87306 -7.5817,8.29995 -7.5817,8.29995 -7.5817,8.29995 0,-5.98555 0,-5.98555 0,-5.98555 0,-3.19228 -1.83556,-5.18746 -4.86823,-5.18746 -2.95287,0 -4.78843,1.99518 -4.78843,5.18746 0,20.90949 0,20.90949 0,20.90949 0,3.19229 1.83556,5.18747 4.78843,5.18747 3.03267,0 4.86823,-1.99518 4.86823,-5.18747 0,-4.14997 0,-4.14997 0,-4.14997 2.71346,-3.03268 2.71346,-3.03268 2.71346,-3.03268 6.54419,10.21533 6.54419,10.21533 6.54419,10.21533 1.11729,1.67595 2.47402,2.15479 3.99035,2.15479 2.23461,0 4.30959,-1.51634 4.78844,-3.51152 0.0798,-0.31923 0.15961,-0.63845 0.15961,-0.95768 0,-1.0375 -0.47884,-1.99518 -0.95769,-2.87307 z"
       id="path32" />
    <path
       style="fill:#543418;fill-opacity:1;fill-rule:nonzero;stroke:none;stroke-width:0.239421"
       d="m 194.36439,186.14424 c -11.65185,0 -11.65185,0 -11.65185,0 0,-4.86825 0,-4.86825 0,-4.86825 9.01822,0 9.01822,0 9.01822,0 2.39421,0 3.75093,-0.95768 4.07016,-2.55383 0.0798,-0.31922 0.0798,-0.63844 0.0798,-0.95768 0,-2.07499 -1.27691,-3.51152 -4.14997,-3.51152 -9.01822,0 -9.01822,0 -9.01822,0 0,-4.22978 0,-4.22978 0,-4.22978 11.25282,0 11.25282,0 11.25282,0 2.39421,0 3.67112,-1.03749 4.07017,-2.55382 0.0798,-0.31923 0.0798,-0.63846 0.0798,-0.95769 0,-2.07498 -1.27692,-3.51151 -4.14998,-3.51151 -15.40279,0 -15.40279,0 -15.40279,0 -3.67113,0 -5.42689,1.67595 -5.42689,5.74612 0,18.67489 0,18.67489 0,18.67489 0,3.99034 1.75576,5.74611 5.42689,5.74611 15.80183,0 15.80183,0 15.80183,0 2.47402,0 3.75094,-1.0375 4.14997,-2.55383 0,-0.31923 0.0798,-0.63846 0.0798,-0.9577 0,-2.15478 -1.27692,-3.51151 -4.22979,-3.51151 z"
       id="path34" />
    <path
       style="fill:#7d5032;fill-opacity:1;fill-rule:nonzero;stroke:none;stroke-width:0.239421"
       d="m 48.157577,171.85875 c 0,-0.0798 0,-0.0798 0,-0.0798 0,-1.83557 0,-1.83557 0,-1.83557 0,-0.0798 0,-0.0798 0,-0.0798 4.229782,-1.1173 5.905735,-3.91056 6.145156,-7.90091 -0.399037,-5.42688 -4.229783,-10.05571 -15.243179,-10.05571 -14.365298,0 -14.365298,0 -14.365298,0 -5.267275,0 -7.821106,2.47402 -7.821106,8.22015 0,24.82004 0,24.82004 0,24.82004 0,5.74612 2.553831,8.22015 7.821106,8.22015 15.322986,0 15.322986,0 15.322986,0 10.534551,0 15.642212,-5.18747 16.121056,-11.81147 0,0 0,0 0,0 -0.319228,-4.86825 -3.032674,-8.61918 -7.980721,-9.49706 z m -17.876816,-12.1307 c 6.783614,0 6.783614,0 6.783614,0 2.952867,0 4.149974,1.59614 4.149974,3.99036 0,0.23942 0,0.55865 -0.0798,0.79807 0.0798,0.31923 0.0798,0.71827 0.0798,1.0375 0,1.99518 -1.43653,3.91055 -4.149974,3.91055 -6.783614,0 -6.783614,0 -6.783614,0 z m 6.863421,25.61811 c -6.863421,0 -6.863421,0 -6.863421,0 0,-8.29994 0,-8.29994 0,-8.29994 6.863421,0 6.863421,0 6.863421,0 2.952865,0 5.027854,0.95768 5.506697,3.19229 0.0798,0.23942 0.0798,0.55865 0.0798,0.87788 0,2.87306 -2.234601,4.22977 -5.586504,4.22977 z"
       id="path36" />
    <path
       style="fill:#7d5032;fill-opacity:1;fill-rule:nonzero;stroke:none;stroke-width:0.239421"
       d="m 88.69964,187.66057 c -0.319228,-2.47401 -0.319228,-2.47401 -0.319228,-2.47401 -0.478844,-3.19229 -2.553832,-4.30959 -5.586504,-4.46921 0,-0.0798 0,-0.0798 0,-0.0798 0,-1.83556 0,-1.83556 0,-1.83556 0,-0.0798 0,-0.0798 0,-0.0798 3.431709,-0.63845 5.746119,-2.87305 6.065347,-6.22495 -0.399037,-4.22979 -3.75094,-7.6615 -10.614359,-7.6615 -10.694167,0 -10.694167,0 -10.694167,0 -4.149974,0 -5.905734,1.75576 -5.905734,5.74612 0,18.11624 0,18.11624 0,18.11624 0,3.19229 1.675952,5.02785 4.62882,5.02785 3.032672,0 4.708623,-1.83556 4.708623,-5.02785 0,-6.30478 0,-6.30478 0,-6.30478 3.830747,0 3.830747,0 3.830747,0 2.234604,0 3.910555,0.71827 4.229783,3.19228 0.399037,3.99037 0.399037,3.99037 0.399037,3.99037 0.399035,2.95287 2.553829,4.14998 5.347082,4.14998 1.835567,0 3.910553,-1.19712 4.229783,-3.11249 0,-0.95769 -0.159615,-1.99518 -0.31923,-2.95286 z m -8.938407,-12.60952 c 0,2.07497 -1.117302,2.95286 -3.910553,2.95286 -4.868242,0 -4.868242,0 -4.868242,0 0,-7.7413 0,-7.7413 0,-7.7413 4.868242,0 4.868242,0 4.868242,0 2.793251,0 3.910553,0.87788 3.910553,2.95287 0,0.31922 0,0.63846 -0.0798,0.95769 0.0798,0.23941 0.0798,0.55865 0.0798,0.87788 z"
       id="path38" />
    <path
       style="fill:#7d5032;fill-opacity:1;fill-rule:nonzero;stroke:none;stroke-width:0.239421"
       d="m 99.473616,164.35687 c -2.952872,0 -4.868242,1.91537 -4.868242,5.18748 0,18.9941 0,18.9941 0,18.9941 0,3.1923 1.91537,5.18747 4.868242,5.18747 2.952864,0 4.788424,-1.99517 4.788424,-5.18747 0,-18.9941 0,-18.9941 0,-18.9941 0,-3.27211 -1.83556,-5.18748 -4.788424,-5.18748 z"
       id="path40" />
    <path
       style="fill:#7d5032;fill-opacity:1;fill-rule:nonzero;stroke:none;stroke-width:0.239421"
       d="m 127.08691,176.48757 c -4.94805,-1.27692 -4.94805,-1.27692 -4.94805,-1.27692 -2.07499,-0.55865 -3.19229,-1.19711 -3.19229,-2.47402 0,-0.39904 0,-1.51635 0,-1.91538 0,-1.35672 1.43653,-1.99518 3.11249,-1.99518 4.78843,0 4.78843,3.67114 8.06052,3.67114 2.07499,0 3.67114,-1.11731 4.07017,-2.95287 -0.87788,-4.22978 -7.50188,-5.42689 -12.68935,-5.42689 -7.8211,0 -11.25281,4.14997 -11.65184,8.77879 0.31922,3.75094 2.87306,6.30477 7.42206,7.58169 6.38458,1.83556 6.38458,1.83556 6.38458,1.83556 1.75576,0.55865 2.63364,1.0375 2.63364,2.23461 0,0.39903 0,1.51633 0,1.91536 0,1.83558 -1.75576,2.47403 -3.75094,2.47403 -4.70863,0 -5.10766,-4.38939 -8.53937,-4.38939 -2.07499,0 -3.59132,1.1971 -3.99037,2.95286 0.63846,2.71344 4.07017,6.38458 13.1682,6.38458 6.06535,0 11.97108,-2.87306 12.44992,-9.33744 -0.39903,-4.54902 -3.75094,-6.70382 -8.53937,-8.06053 z"
       id="path42" />
    <path
       style="fill:#7d5032;fill-opacity:1;fill-rule:nonzero;stroke:none;stroke-width:0.239421"
       d="m 168.18762,188.29904 c -7.34225,-11.41244 -7.34225,-11.41244 -7.34225,-11.41244 0,-1.91537 0,-1.91537 0,-1.91537 4.46919,-5.02786 4.46919,-5.02786 4.46919,-5.02786 0.9577,-0.95768 1.51634,-1.59614 1.75576,-2.47401 -0.47883,-1.59614 -1.99518,-3.11249 -4.14997,-3.11249 -1.59615,0 -2.55383,0.79807 -4.38939,2.79326 -7.5817,8.29995 -7.5817,8.29995 -7.5817,8.29995 0,-5.90573 0,-5.90573 0,-5.90573 0,-3.2721 -1.83556,-5.18747 -4.86823,-5.18747 -2.95287,0 -4.78843,1.91537 -4.78843,5.18747 0,18.99411 0,18.99411 0,18.99411 0,3.19229 1.83556,5.18747 4.78843,5.18747 3.03267,0 4.86823,-1.99518 4.86823,-5.18747 0,-4.14997 0,-4.14997 0,-4.14997 2.71346,-3.03268 2.71346,-3.03268 2.71346,-3.03268 6.54419,10.21533 6.54419,10.21533 6.54419,10.21533 1.11729,1.67595 2.47402,2.15479 3.99035,2.15479 2.23461,0 4.30959,-1.51634 4.78844,-3.51152 -0.15962,-0.71826 -0.47885,-1.35672 -0.79808,-1.91537 z"
       id="path44" />
    <path
       style="fill:#7d5032;fill-opacity:1;fill-rule:nonzero;stroke:none;stroke-width:0.239421"
       d="m 194.36439,187.97981 c -11.65185,0 -11.65185,0 -11.65185,0 0,-6.70382 0,-6.70382 0,-6.70382 9.01822,0 9.01822,0 9.01822,0 2.39421,0 3.75093,-0.95768 4.07016,-2.55383 -0.31923,-1.59614 -1.67595,-2.55381 -4.07016,-2.55381 -9.01822,0 -9.01822,0 -9.01822,0 0,-6.14516 0,-6.14516 0,-6.14516 11.25282,0 11.25282,0 11.25282,0 2.39421,0 3.67112,-1.03749 4.07017,-2.55383 -0.39905,-1.59614 -1.67596,-2.63364 -4.07017,-2.63364 -15.4028,0 -15.4028,0 -15.4028,0 -3.67113,0 -5.42689,1.75576 -5.42689,5.74612 0,16.83933 0,16.83933 0,16.83933 0,3.99035 1.75576,5.74611 5.42689,5.74611 15.80183,0 15.80183,0 15.80183,0 2.47403,0 3.75094,-1.03749 4.14997,-2.55383 -0.39903,-1.59614 -1.67594,-2.63364 -4.14997,-2.63364 z"
       id="path46" />
    <path
       style="fill:#996f3a;fill-opacity:1;fill-rule:nonzero;stroke:none;stroke-width:0.239421"
       d="m 224.05268,158.29152 c -0.55866,0 -1.0375,-0.15961 -1.43653,-0.55865 -0.31923,-0.31922 -0.55866,-0.87787 -0.55866,-1.35672 0,-0.39903 -0.31922,-0.71827 -0.63845,-0.71827 -9.81629,0 -9.81629,0 -9.81629,0 -1.1173,0 -1.99518,-0.87787 -1.99518,-1.91537 0,-2.63363 0,-2.63363 0,-2.63363 0,-3.67114 3.03267,-6.624 6.7038,-6.624 25.05947,0 25.05947,0 25.05947,0 3.67113,0 6.7038,2.95286 6.7038,6.624 0,2.63363 0,2.63363 0,2.63363 0,1.0375 -0.87788,1.91537 -1.99517,1.91537 -9.81629,0 -9.81629,0 -9.81629,0 -0.15961,0 -0.31923,0.0798 -0.47884,0.23942 -0.0798,0.0798 -0.15962,0.31923 -0.15962,0.47885 0,1.0375 -0.87788,1.91537 -1.99518,1.91537 z"
       id="path48" />
    <path
       style="fill:#543418;fill-opacity:1;fill-rule:nonzero;stroke:none;stroke-width:0.239421"
       d="m 241.37084,145.12333 c 3.35191,0 6.06534,2.71345 6.06534,5.98555 0,2.63363 0,2.63363 0,2.63363 0,0.71826 -0.63844,1.27693 -1.35671,1.27693 -9.81629,0 -9.81629,0 -9.81629,0 -0.31923,0 -0.63846,0.15961 -0.87788,0.39903 -0.23943,0.23941 -0.39904,0.55865 -0.39904,0.95769 0,0.71826 -0.63845,1.27691 -1.35672,1.27691 -9.57686,0 -9.57686,0 -9.57686,0 -0.39904,0 -0.71827,-0.0798 -0.95769,-0.31923 -0.23942,-0.23942 -0.39904,-0.63845 -0.39904,-0.95768 0,-0.71827 -0.55865,-1.35672 -1.27691,-1.35672 -9.81629,0 -9.81629,0 -9.81629,0 -0.71827,0 -1.35672,-0.55866 -1.35672,-1.27693 0,-2.63363 0,-2.63363 0,-2.63363 0,-3.2721 2.71344,-5.98555 6.06534,-5.98555 25.05947,0 25.05947,0 25.05947,0 m 0,-1.27691 c -25.05947,0 -25.05947,0 -25.05947,0 -4.07016,0 -7.34225,3.2721 -7.34225,7.26246 0,2.63363 0,2.63363 0,2.63363 0,1.43654 1.1971,2.55384 2.63363,2.55384 9.81629,0 9.81629,0 9.81629,0 0,0 0,0.0798 0,0.0798 0,0.71826 0.23942,1.35672 0.79807,1.83556 0.47884,0.47885 1.1173,0.71827 1.83557,0.71827 9.57686,0 9.57686,0 9.57686,0 1.43653,0 2.63364,-1.1173 2.63364,-2.55383 0,0 0,0 0,-0.0798 0,0 0,0 0,0 9.81629,0 9.81629,0 9.81629,0 1.43653,0 2.63364,-1.11731 2.63364,-2.55384 0,-2.63363 0,-2.63363 0,-2.63363 0,-3.99036 -3.2721,-7.26246 -7.34227,-7.26246 z"
       id="path50" />
    <path
       style="fill:#996f3a;fill-opacity:1;fill-rule:nonzero;stroke:none;stroke-width:0.239421"
       d="m 182.71254,148.39543 c -124.339639,0 -124.339639,0 -124.339639,0 -2.31441,0 -4.229784,1.91537 -4.229784,4.30959 0,0 0,0 0,0 0,2.31441 1.915374,4.22978 4.229784,4.22978 124.339639,0 124.339639,0 124.339639,0 2.31441,0 4.22978,-1.91537 4.22978,-4.22978 0,0 0,0 0,0 0,-2.39422 -1.91537,-4.30959 -4.22978,-4.30959 z"
       id="path52" />
    <path
       style="fill:#ffded4;fill-opacity:1;fill-rule:nonzero;stroke:none;stroke-width:0.239421"
       d="m 247.43618,153.5031 c 0,0.23941 0,0.23941 0,0.23941 0,0.71826 -0.63844,1.27693 -1.35671,1.27693 -9.81629,0 -9.81629,0 -9.81629,0 -0.31923,0 -0.63846,0.15961 -0.87788,0.39903 -0.23943,0.23941 -0.39904,0.55865 -0.39904,0.95769 0,0.71826 -0.63845,1.27691 -1.35672,1.27691 -9.57686,0 -9.57686,0 -9.57686,0 -0.39904,0 -0.71827,-0.0798 -0.95769,-0.31923 -0.23942,-0.23942 -0.39904,-0.63845 -0.39904,-0.95768 0,-0.71827 -0.55865,-1.35672 -1.27691,-1.35672 -9.81629,0 -9.81629,0 -9.81629,0 -0.71827,0 -1.35672,-0.55866 -1.35672,-1.27693 0,-0.23941 0,-0.23941 0,-0.23941 0,-3.35192 2.71344,-5.98554 6.06534,-5.98554 25.05947,0 25.05947,0 25.05947,0 3.35191,0 6.06534,2.63363 6.06534,5.98554 z"
       id="path54" />
    <path
       style="fill:none;stroke:#ffded4;stroke-width:1.27691px;stroke-linecap:round;stroke-linejoin:round;stroke-miterlimit:4;stroke-dasharray:1.59615, 4.78844;stroke-dashoffset:0;stroke-opacity:1"
       d="m 248.23427,190.69325 h -1.59616 m -4.78842,0 h -1.59615 m -4.78844,0 h -1.59614 m -4.78843,0 h -1.59614 m -4.78844,0 h -1.59614 m -4.78844,0 h -1.59614 m -4.78843,0 h -0.47885 -1.1173 m -3.3519,-2.63364 v -1.59615 m 0,-4.78842 v -1.59615 m 0,-4.78843 v -1.59615 m 0,-4.78843 v -1.59614 m 0,-4.78844 v -1.59614 m 0,-4.78843 v -1.59614 m 0,-4.78844 V 148.156 m 0,-4.78842 v -1.59615 m 1.43653,-3.99036 h 0.87788 0.71826 m 4.78844,0 h 1.59614 m 4.78843,0 h 1.59615 m 4.78843,0 h 1.59615 m 4.78843,0 h 1.59614 m 4.78843,0 h 1.59615 m 4.78844,0 h 1.59614 m 4.78844,0 h 0.55864 l 0.71826,0.71827 m 0.31922,4.70862 v 1.59615 m 0,4.78842 v 1.59615 m 0,4.78844 v 1.59613 m 0,4.78844 v 1.59614 m 0,4.78844 v 1.59614 m 0,4.78843 v 1.59615 m 0,4.78843 v 1.59615 m 0,4.78842 v 0.79808 l -0.55864,0.55865"
       id="path56" />
    <path
       style="fill:#bf545e;fill-opacity:1;fill-rule:nonzero;stroke:none;stroke-width:0.239421"
       d="m 225.64881,148.63485 c -4.86823,0 -9.89609,-3.75094 -13.24799,-9.89608 -0.0798,-0.0798 -0.0798,-0.0798 -0.0798,-0.0798 -0.15961,-0.23941 -0.31923,-0.55864 -0.47883,-0.87788 -3.59133,-6.7038 -3.51153,-13.56722 0.23941,-17.31816 2.07499,-2.15479 3.51152,-2.2346 5.26728,-2.31442 0.23942,-0.0798 0.23942,-0.0798 0.23942,-0.0798 0.0798,0 0.0798,0 0.0798,0 0.0798,0 0.0798,0 0.0798,0 0.15961,0 0.31923,0 0.39904,0 4.07016,0 9.25763,4.22979 12.60954,10.21533 3.59132,6.30476 4.4692,13.16817 2.07498,16.44028 -0.79807,1.1173 -0.79807,1.1173 -0.79807,1.1173 0,0 0,0 0,0 -0.79806,1.1173 -1.83556,1.99518 -4.14997,2.55382 -0.71827,0.15962 -1.43653,0.23942 -2.23461,0.23942 z"
       id="path58" />
    <path
       style="fill:#99404b;fill-opacity:1;fill-rule:nonzero;stroke:none;stroke-width:0.239421"
       d="m 218.22675,116.47255 c 0,3.19229 0,3.19229 0,3.19229 2.87306,0 7.66149,3.2721 11.173,9.41724 3.67114,6.4644 3.83076,12.37012 2.1548,14.68453 -1.03749,1.43653 -1.03749,1.43653 -1.03749,1.43653 -0.63846,0.71827 -1.43653,1.27692 -3.03267,1.67595 -0.55865,0.0798 -1.19711,0.15962 -1.83558,0.15962 -4.22977,0 -8.77878,-3.43171 -11.89127,-9.09803 0,0 0,0 0,0 0,-0.0798 0,-0.0798 0,-0.0798 -0.15961,-0.23942 -0.31923,-0.55865 -0.47884,-0.79806 -3.2721,-6.14515 -3.3519,-12.21051 -0.0798,-15.4826 1.67595,-1.67596 2.55383,-1.75577 4.22979,-1.83557 0.23942,-0.0798 0.23942,-0.0798 0.23942,-0.0798 0.0798,0 0.0798,0 0.0798,0 0.0798,0 0.0798,0 0.0798,0 0.15962,0 0.23942,0 0.39904,0 0,-3.19228 0,-3.19228 0,-3.19228 m -0.0798,0 c -0.15961,0 -0.39904,0 -0.55865,0 0,0 0,0 0,0 -1.99518,0.15962 -3.99036,0.15962 -6.70381,2.87306 -4.30959,4.3894 -4.30959,11.97108 -0.47883,19.23354 0.23941,0.31923 0.39903,0.63845 0.55864,0.95768 3.67113,6.624 9.17783,10.69418 14.68452,10.69418 0.87789,0 1.75577,-0.0798 2.55384,-0.31924 3.75094,-0.87788 4.78843,-2.55382 5.90574,-4.22978 0,0 0,0 0,0 2.71344,-3.67113 2.07498,-11.17301 -1.91538,-18.19604 -3.83074,-6.70381 -9.49706,-11.0134 -14.04607,-11.0134 z"
       id="path60" />
    <path
       style="fill:#99404b;fill-opacity:1;fill-rule:nonzero;stroke:none;stroke-width:0.239421"
       d="m 234.10839,145.68199 c -1.11731,1.67595 -2.1548,3.3519 -5.90574,4.22978 -6.22496,1.51634 -13.00858,-2.79325 -17.23836,-10.37494 -0.15961,-0.31923 -0.31923,-0.63846 -0.55864,-0.95769 3.91054,6.624 13.3278,9.33745 18.67488,9.49706 1.1173,0 2.2346,-0.23942 3.19228,-0.79808 0.71827,-0.39903 1.35673,-0.87787 1.83558,-1.59613 z"
       id="path62" />
    <path
       style="fill:#f9a7b4;fill-opacity:1;fill-rule:nonzero;stroke:none;stroke-width:0.239421"
       d="m 231.55455,127.80517 c 4.14997,7.34226 4.22979,15.16336 0.15961,17.47778 -4.07016,2.31441 -10.77397,-1.75576 -14.92394,-9.01822 -4.14998,-7.34226 -4.22978,-15.16336 -0.0798,-17.47777 4.07016,-2.31441 10.69416,1.75576 14.84413,9.01821 z"
       id="path64" />
    <path
       style="fill:#ffded4;fill-opacity:1;fill-rule:nonzero;stroke:none;stroke-width:0.239421"
       d="m 224.93055,125.41096 c 0.71826,1.27691 0.71826,2.63364 0,3.03268 -0.71827,0.31921 -1.83556,-0.31923 -2.55383,-1.59615 -0.71826,-1.27692 -0.71826,-2.63364 0,-3.03267 0.63846,-0.39903 1.83556,0.31923 2.55383,1.59614 z"
       id="path66" />
    <path
       style="fill:#ffded4;fill-opacity:1;fill-rule:nonzero;stroke:none;stroke-width:0.239421"
       d="m 223.81325,134.10994 c 0.31923,0.55865 0.31923,1.11731 0,1.27692 -0.31923,0.15962 -0.79807,-0.0798 -1.1173,-0.63845 -0.23942,-0.55865 -0.23942,-1.11731 0,-1.27692 0.31923,-0.15961 0.79807,0.0798 1.1173,0.63845 z"
       id="path68" />
    <path
       style="fill:#ffded4;fill-opacity:1;fill-rule:nonzero;stroke:none;stroke-width:0.239421"
       d="m 230.67667,133.79071 c 0.47885,0.79807 0.47885,1.67596 0,1.91537 -0.39903,0.23942 -1.1173,-0.1596 -1.59614,-0.95768 -0.47884,-0.79808 -0.47884,-1.67596 0,-1.91538 0.39904,-0.23942 1.19711,0.15962 1.59614,0.95769 z"
       id="path70" />
    <path
       style="fill:#bf545e;fill-opacity:1;fill-rule:nonzero;stroke:none;stroke-width:0.239421"
       d="m 87.981375,153.02424 c -11.572045,0 -22.665247,-1.27691 -31.922884,-3.75093 C 45.284517,146.40025 37.144182,142.17047 31.797099,136.66377 26.689436,131.39649 24.29522,125.01191 24.534642,117.58984 25.1731,100.59091 32.59517,87.502532 46.64124,78.803546 58.133479,71.700704 74.015114,67.790151 91.492893,67.790151 c 11.332617,0 22.665257,1.675951 31.922887,4.708625 0.95768,0.319229 1.75576,0.558651 2.55383,0.87788 4.22978,1.99518 8.14034,6.703805 10.93359,13.088382 3.03267,6.863424 4.62882,15.083562 4.62882,23.862362 0,8.69898 -1.59615,16.99892 -4.62882,23.78254 -2.79325,6.46439 -6.70381,11.17301 -11.0134,13.16818 -0.39903,0.15962 -0.87788,0.31924 -1.43653,0.55866 -8.45956,3.19228 -22.50563,5.18746 -36.471895,5.18746 0,0 0,0 0,0 z"
       id="path72" />
    <path
       style="fill:#99404b;fill-opacity:1;fill-rule:nonzero;stroke:none;stroke-width:0.239421"
       d="m 91.492893,69.386294 c 11.173017,0 22.346017,1.675953 31.444037,4.628819 0.87788,0.239422 1.67596,0.55865 2.39422,0.798073 3.91056,1.915372 7.50189,6.224962 10.13552,12.29031 2.87306,6.544188 4.4692,14.844144 4.4692,23.223904 0,8.37974 -1.59614,16.59989 -4.4692,23.14408 -2.63363,6.14516 -6.30477,10.45475 -10.21533,12.37011 -0.39903,0.15962 -0.87788,0.31924 -1.35672,0.47885 -8.29995,3.19229 -22.10659,5.10767 -35.913245,5.10767 -11.41243,0 -22.346019,-1.27693 -31.523847,-3.75094 -10.454746,-2.71345 -18.435467,-6.86343 -23.54313,-12.1307 -4.708624,-4.94804 -7.023033,-10.93359 -6.783612,-17.87681 0.638458,-16.44028 7.7413,-29.129634 21.308526,-37.509392 11.252817,-6.943227 26.89503,-10.773974 44.053581,-10.773974 m 0,-3.192287 c -31.843078,0 -67.197673,12.928768 -68.554395,51.395833 -0.957687,27.77292 34.157486,37.03055 65.042877,37.03055 14.764335,0 28.570985,-2.07498 37.030545,-5.26727 0.55865,-0.23942 1.0375,-0.39904 1.51633,-0.63847 9.57688,-4.46919 16.59991,-19.9518 16.59991,-38.38725 0,-18.435468 -7.02303,-33.997878 -16.59991,-38.467082 -0.79806,-0.319229 -1.67594,-0.55865 -2.63363,-0.877879 -9.01821,-2.952867 -20.43065,-4.788432 -32.401727,-4.788432 z"
       id="path74" />
    <path
       style="fill:#99404b;fill-opacity:1;fill-rule:nonzero;stroke:none;stroke-width:0.239421"
       d="m 73.376655,73.935306 c -3.43171,0.957686 -6.703806,2.314409 -9.736478,3.990361 -1.516339,0.877879 -3.032675,1.835565 -4.469205,2.793251 -1.356723,1.037494 -2.713444,2.154795 -3.990361,3.272097 -2.553829,2.394216 -4.868239,5.027854 -6.783613,7.900917 -1.915372,2.793248 -3.511518,5.825923 -4.708626,9.018218 -0.399034,1.19711 -1.675951,1.75576 -2.87306,1.35672 -1.117299,-0.47884 -1.755758,-1.75576 -1.276914,-2.95287 0,0 0,-0.07981 0.0798,-0.159615 0,0 0,0 0,0 1.596145,-3.351906 3.671133,-6.544188 5.985541,-9.417251 2.31441,-2.87306 5.027854,-5.426891 7.900914,-7.661493 1.43653,-1.1173 2.952868,-2.154794 4.549011,-3.11248 1.516338,-0.87788 3.19229,-1.755759 4.788433,-2.474024 3.351903,-1.516337 6.783614,-2.633639 10.29513,-3.351903 0.239422,-0.0798 0.478843,0.0798 0.478843,0.319229 0.07981,0.239421 -0.0798,0.399035 -0.239421,0.478843 z"
       id="path76" />
    <path
       style="fill:#99404b;fill-opacity:1;fill-rule:nonzero;stroke:none;stroke-width:0.239421"
       d="m 108.97068,73.456463 c -1.91538,1.755758 -3.75094,3.671131 -5.26729,5.825926 -1.59614,2.074988 -2.95286,4.309589 -4.070158,6.623998 -0.478847,1.197109 -0.957693,2.394217 -1.43653,3.591325 -0.399043,1.197108 -0.798077,2.39422 -1.117308,3.671135 -0.55865,2.474025 -0.957684,5.027854 -1.037487,7.501873 -0.07981,1.27692 -1.117304,2.2346 -2.39422,2.15479 -1.197107,-0.0798 -2.154794,-1.1173 -2.074988,-2.3144 0,-0.0798 0,-0.15961 0,-0.23943 0,0 0,0 0,0 0.399037,-2.793244 1.117302,-5.506688 2.074988,-8.140329 0.478844,-1.356724 1.037493,-2.633639 1.596146,-3.910554 0.638459,-1.197108 1.276911,-2.474024 1.995176,-3.591325 1.43653,-2.394216 3.112491,-4.628818 4.948051,-6.623999 1.91538,-1.99518 3.91056,-3.750938 6.14515,-5.347082 0.23942,-0.159615 0.55865,-0.159615 0.71827,0.0798 0.15961,0.239421 0.15961,0.55865 -0.0798,0.718265 z"
       id="path78" />
    <path
       style="fill:#99404b;fill-opacity:1;fill-rule:nonzero;stroke:none;stroke-width:0.239421"
       d="m 90.215978,72.658391 c -2.873059,1.197107 -5.586506,2.713445 -8.140335,4.469203 -1.276917,0.877879 -2.474026,1.915373 -3.591325,2.87306 -0.87788,0.798072 -0.87788,0.798072 -0.87788,0.798072 -0.798072,0.798072 -0.798072,0.798072 -0.798072,0.798072 -0.558651,0.55865 -1.037495,1.117302 -1.516338,1.675952 -1.995179,2.314409 -3.750937,4.86824 -5.187467,7.581686 -1.43653,2.633642 -2.553832,5.506701 -3.351903,8.379761 -0.31923,1.197103 -1.516339,1.915363 -2.713446,1.596133 -1.197109,-0.39903 -1.915374,-1.596133 -1.596144,-2.793244 0,-0.07981 0.0798,-0.07981 0.0798,-0.159616 0,0 0,0 0,0 1.117302,-3.112478 2.633639,-6.145153 4.389397,-8.938409 1.755759,-2.793251 3.910554,-5.347083 6.224962,-7.661491 0.638459,-0.558652 1.197108,-1.117302 1.835566,-1.675952 0.957687,-0.798072 0.957687,-0.798072 0.957687,-0.798072 0.957687,-0.718265 0.957687,-0.718265 0.957687,-0.718265 1.276914,-1.037494 2.633638,-1.915373 3.990361,-2.793253 2.793251,-1.596144 5.825926,-2.952866 8.8586,-3.910552 0.399035,-0.159615 0.798072,0.0798 0.877879,0.399035 0.159614,0.399036 -0.0798,0.718265 -0.399035,0.87788 z"
       id="path80" />
    <path
       style="fill:#99404b;fill-opacity:1;fill-rule:nonzero;stroke:none;stroke-width:0.239421"
       d="m 38.500905,91.173664 c 4.948046,-2.314409 10.055709,-4.149975 15.322984,-5.506698 5.267277,-1.356723 10.694165,-2.234602 16.121056,-2.713445 5.426892,-0.399036 10.853781,-0.319229 16.280672,0.239421 5.347082,0.558651 10.69417,1.675952 15.961443,3.192289 0.63845,0.159614 1.0375,0.877879 0.79807,1.516337 -0.15962,0.638458 -0.87788,0.957687 -1.51633,0.798072 0,0 0,0 0,0 -5.027859,-1.43653 -10.295136,-2.394216 -15.562411,-2.952867 -5.18747,-0.478843 -10.534552,-0.558651 -15.801828,-0.0798 -5.267276,0.399035 -10.454746,1.276915 -15.562407,2.713445 -5.107663,1.356723 -10.055708,3.192289 -14.844141,5.426894 0,0 0,0 0,0 -0.718264,0.319221 -1.596145,0 -1.915373,-0.718265 -0.31923,-0.718265 0,-1.596148 0.718265,-1.915376 z"
       id="path82" />
    <path
       style="fill:#99404b;fill-opacity:1;fill-rule:nonzero;stroke:none;stroke-width:0.239421"
       d="m 47.199891,81.83622 c 4.788432,-1.516337 9.656672,-3.112482 14.604719,-4.309589 4.948048,-1.276916 9.975902,-2.154795 15.083563,-2.474024 2.553832,-0.159615 5.107661,-0.159615 7.661493,-0.159615 2.553831,0.0798 5.10766,0.159615 7.581686,0.399036 5.107657,0.478844 10.135508,1.276916 15.083558,2.394217 0.31924,0.0798 0.55865,0.399036 0.47885,0.718265 -0.0798,0.319228 -0.39904,0.558651 -0.71826,0.478843 -4.94806,-1.117301 -9.896106,-1.915373 -14.923957,-2.314409 -5.027854,-0.478843 -10.055709,-0.558651 -15.083563,-0.239422 -5.027854,0.319229 -9.9759,1.197109 -14.844142,2.394216 -4.948045,1.197109 -9.736479,2.793253 -14.524911,4.389397 -0.31923,0.0798 -0.718265,-0.0798 -0.798073,-0.399035 -0.159614,-0.399037 0.07981,-0.718265 0.399037,-0.87788 0,0 0,0 0,0 z"
       id="path84" />
    <path
       style="fill:#99404b;fill-opacity:1;fill-rule:nonzero;stroke:none;stroke-width:0.239421"
       d="m 143.12816,110.3274 c 0,18.43545 -7.02303,33.91807 -16.59991,38.38725 -0.47883,0.23943 -0.95768,0.39905 -1.51633,0.63847 -19.9518,7.50187 -69.671694,9.01821 -91.538869,-8.93841 18.595079,1.35672 37.429582,-0.95769 47.964133,-4.94805 0.55865,-0.15961 1.037493,-0.39904 1.516337,-0.55865 8.29995,-3.91055 14.764334,-16.28067 16.200864,-31.68345 43.893965,3.91054 43.893965,3.91054 43.893965,3.91054 0,1.0375 0.0798,2.07498 0.0798,3.1923 z"
       id="path86" />
    <path
       style="fill:#99404b;fill-opacity:1;fill-rule:nonzero;stroke:none;stroke-width:0.239421"
       d="m 143.12816,110.4072 c 0,21.94698 -9.9759,39.66418 -22.18641,39.66418 -12.2105,0 -22.186399,-17.7172 -22.186399,-39.66418 0,-21.946981 9.975899,-39.664183 22.186399,-39.664183 12.21051,0 22.18641,17.717202 22.18641,39.664183 z"
       id="path88" />
    <path
       style="fill:#e0778c;fill-opacity:1;fill-rule:nonzero;stroke:none;stroke-width:0.239421"
       d="m 141.53202,110.4072 c 0,19.31334 -8.69898,34.95556 -19.47296,34.95556 -10.85379,0 -19.55277,-15.64222 -19.55277,-34.95556 0,-19.313343 8.69898,-34.955557 19.55277,-34.955557 10.77398,0 19.47296,15.642214 19.47296,34.955557 z"
       id="path90" />
    <path
       style="fill:#ffded4;fill-opacity:1;fill-rule:nonzero;stroke:none;stroke-width:0.239421"
       d="m 130.99746,97.957274 c 0,3.351906 -1.51633,6.065356 -3.43171,6.065356 -1.83556,0 -3.3519,-2.71345 -3.3519,-6.065356 0,-3.351897 1.51634,-5.985538 3.3519,-5.985538 1.91538,0 3.43171,2.633641 3.43171,5.985538 z"
       id="path92" />
    <path
       style="fill:#ffded4;fill-opacity:1;fill-rule:nonzero;stroke:none;stroke-width:0.239421"
       d="m 118.94657,114.15814 c 0,1.43653 -0.63845,2.55382 -1.43653,2.55382 -0.79807,0 -1.43653,-1.11729 -1.43653,-2.55382 0,-1.43653 0.63846,-2.55383 1.43653,-2.55383 0.79808,0 1.43653,1.1173 1.43653,2.55383 z"
       id="path94" />
    <path
       style="fill:#ffded4;fill-opacity:1;fill-rule:nonzero;stroke:none;stroke-width:0.239421"
       d="m 132.99264,121.34078 c 0,2.075 -0.95768,3.75094 -2.07498,3.75094 -1.19711,0 -2.1548,-1.67594 -2.1548,-3.75094 0,-2.15479 0.95769,-3.83074 2.1548,-3.83074 1.1173,0 2.07498,1.67595 2.07498,3.83074 z"
       id="path96" />
    <path
       style="fill:#bf545e;fill-opacity:1;fill-rule:nonzero;stroke:none;stroke-width:0.239421"
       d="m 164.67611,114.63699 c 4.4692,18.03642 0,34.63632 -10.05571,37.19015 -10.05571,2.55383 -21.94698,-10.05571 -26.41619,-28.09214 -4.54901,-18.03642 0,-34.716131 10.05571,-37.269962 10.05571,-2.474023 21.86718,10.135518 26.41619,28.171952 z"
       id="path98" />
    <path
       style="fill:#bf545e;fill-opacity:1;fill-rule:nonzero;stroke:none;stroke-width:0.239421"
       d="m 146.55987,153.10406 c -0.31923,0 -0.55865,0 -0.87788,-0.0798 -5.66631,-0.15961 -11.0932,-2.79324 -15.64221,-7.66149 -4.54901,-4.94804 -7.98072,-11.73166 -9.81629,-19.63257 0,0 0,0 0,0 -2.1548,-7.90092 -2.31441,-15.40279 -0.55865,-21.94697 1.67595,-6.384586 5.18747,-11.332637 10.13552,-14.125887 2.87306,-1.675951 5.34708,-2.474024 7.8211,-2.474024 1.27692,0 2.47403,0.239422 3.75094,0.478844 0,0.0798 0,0.0798 0,0.0798 1.27692,0.239421 1.27692,0.239421 1.27692,0.239421 6.70381,1.197109 13.80665,8.858599 18.03643,19.552776 0.95768,2.39422 1.75575,4.94805 2.39421,7.42207 3.59133,14.20568 1.35673,28.25174 -5.26727,33.51902 -0.55865,0.47884 -0.55865,0.47884 -0.55865,0.47884 0,0 0,0 0,0 -2.55384,2.1548 -4.94805,4.14998 -10.69417,4.14998 z"
       id="path100" />
    <path
       style="fill:#99404b;fill-opacity:1;fill-rule:nonzero;stroke:none;stroke-width:0.239421"
       d="m 137.62146,85.587159 c 0,3.192288 0,3.192288 0,3.192288 0.71827,0 1.43653,0.0798 2.1548,0.239422 0,0 0,0 0,0 2.63364,0.478843 2.63364,0.478843 2.63364,0.478843 6.14515,1.117302 12.76915,8.459562 16.83932,18.674888 0.87788,2.31442 1.67595,4.70862 2.31441,7.18265 1.75575,6.94322 2.1548,13.96625 1.1173,19.87199 -0.95769,5.5067 -3.03267,9.73648 -5.82593,11.97108 -1.1971,0.95768 -1.1971,0.95768 -1.1971,0.95768 0,0.0798 0,0.0798 0,0.0798 -2.31441,1.83558 -4.3894,3.27211 -9.09803,3.27211 -0.31923,0 -0.55865,0 -0.79807,-0.0798 -5.26728,-0.15962 -10.29513,-2.63364 -14.52491,-7.18265 -4.3894,-4.70864 -7.6615,-11.25282 -9.49706,-18.83451 0,-0.0798 0,-0.0798 0,-0.0798 0,0 0,0 0,0 -1.99518,-7.58168 -2.23461,-14.92395 -0.55865,-21.1489 1.59614,-5.985549 4.86824,-10.534557 9.41725,-13.168199 3.43171,-1.995179 5.66631,-2.234601 7.02303,-2.234601 0,-3.192288 0,-3.192288 0,-3.192288 m 0,0 c -2.39421,0 -5.10766,0.638457 -8.61918,2.633637 -10.93359,6.304774 -14.68453,21.547951 -10.37494,37.908431 3.91056,16.52009 14.44511,28.17195 26.97485,28.49118 0.31922,0.0798 0.63845,0.0798 0.95768,0.0798 6.7038,0 9.41725,-2.63364 12.29031,-4.94805 0,0 0,0 0,0 7.02304,-5.58651 9.65667,-19.87199 5.82593,-35.11517 -0.71826,-2.71344 -1.51634,-5.26728 -2.47403,-7.6615 -4.549,-11.332619 -11.97108,-19.313345 -19.23353,-20.59026 0,0 0,0 0,0 -1.75576,-0.399036 -3.43171,-0.798072 -5.34709,-0.798072 z"
       id="path102" />
    <path
       style="fill:#f9a7b4;fill-opacity:1;fill-rule:nonzero;stroke:none;stroke-width:0.239421"
       d="m 163.3992,114.9562 c 3.99035,15.88164 0,30.56617 -8.85861,32.80077 -8.8586,2.23461 -19.31334,-8.8586 -23.3037,-24.82004 -3.99037,-15.88164 0,-30.56616 8.8586,-32.80076 8.8586,-2.234602 19.31335,8.858599 23.30371,24.82003 z"
       id="path104" />
    <path
       style="fill:#99404b;fill-opacity:1;fill-rule:nonzero;stroke:none;stroke-width:0.239421"
       d="m 154.6204,151.82714 c -1.75576,0.47884 -3.59132,0.39904 -5.42689,0 -0.47884,-1.43653 -0.87788,-3.03267 -1.11731,-4.62882 -0.71826,-3.83074 -0.95768,-7.98072 -0.63845,-12.29031 0.87788,-13.24799 6.54419,-24.10178 13.48742,-27.45367 0.39903,-0.15961 0.79807,-0.39904 1.27691,-0.47884 0.95769,2.39421 1.75577,4.94805 2.47403,7.66149 4.4692,18.03642 0,34.71613 -10.05571,37.19015 z"
       id="path106" />
    <path
       style="fill:#e0778c;fill-opacity:1;fill-rule:nonzero;stroke:none;stroke-width:0.239421"
       d="m 154.54059,147.75697 c -2.1548,0.47885 -4.30959,0.31923 -6.46439,-0.55865 -0.71826,-3.83074 -0.95768,-7.98072 -0.63845,-12.29031 0.87788,-13.24799 6.54419,-24.10178 13.48742,-27.45367 0.95768,2.31441 1.83556,4.86823 2.47403,7.50186 3.99035,15.88164 0,30.56617 -8.85861,32.80077 z"
       id="path108" />
    <path
       style="fill:#ffded4;fill-opacity:1;fill-rule:nonzero;stroke:none;stroke-width:0.239421"
       d="m 152.06657,106.89569 c 0.71827,2.71345 0.0798,5.26728 -1.51634,5.5865 -1.51633,0.39903 -3.27209,-1.51634 -3.99036,-4.22979 -0.63846,-2.71344 0,-5.26727 1.51633,-5.66631 1.51635,-0.31922 3.35191,1.51635 3.99037,4.3096 z"
       id="path110" />
    <path
       style="fill:#ffded4;fill-opacity:1;fill-rule:nonzero;stroke:none;stroke-width:0.239421"
       d="m 145.52238,122.69751 c 0.31923,1.1173 0,2.2346 -0.63846,2.39421 -0.63846,0.15962 -1.43653,-0.63846 -1.67595,-1.83556 -0.31923,-1.19711 0,-2.2346 0.63846,-2.39422 0.63845,-0.15961 1.43653,0.63846 1.67595,1.83557 z"
       id="path112" />
    <path
       style="fill:#ffded4;fill-opacity:1;fill-rule:nonzero;stroke:none;stroke-width:0.239421"
       d="m 158.61076,125.65037 c 0.39903,1.75576 0,3.35191 -0.95768,3.59133 -0.9577,0.23942 -2.075,-0.95768 -2.55383,-2.71344 -0.39905,-1.75577 0,-3.35191 0.95768,-3.59132 0.95768,-0.23943 2.07498,0.95767 2.55383,2.71343 z"
       id="path114" />
    <path
       style="fill:#99404b;fill-opacity:1;fill-rule:nonzero;stroke:none;stroke-width:0.239421"
       d="m 158.85018,149.75215 c 0,0 0,0 0,0 -3.03267,2.47403 -5.74612,5.10767 -13.24799,4.86824 -9.17783,-0.23942 -17.23836,-6.54419 -22.42583,-16.28067 5.98554,7.7413 19.23354,13.80665 28.7306,13.80665 0.87788,0 1.83556,-0.0798 2.71344,-0.31923 1.51633,-0.39902 2.95286,-1.1173 4.22978,-2.07499 z"
       id="path116" />
    <path
       style="fill:#bf545e;fill-opacity:1;fill-rule:nonzero;stroke:none;stroke-width:0.239421"
       d="m 183.67023,152.62521 c -7.98073,0 -16.36048,-5.66631 -22.34603,-15.00375 0,-0.0798 0,-0.0798 0,-0.0798 -3.75094,-5.5067 -5.98553,-11.33263 -6.38457,-16.83932 -0.47884,-5.42689 0.87788,-10.13552 3.91055,-13.64703 3.43172,-3.99036 5.98555,-4.30959 8.93841,-4.70862 0.55865,-0.0798 0.55865,-0.0798 0.55865,-0.0798 0.47884,-0.0798 1.03749,-0.15961 1.51634,-0.15961 6.78361,0 15.4826,6.22496 21.62775,15.5624 6.5442,9.9759 8.77879,21.30852 5.18747,27.21425 -0.31923,0.31923 -0.31923,0.31923 -0.31923,0.31923 0,0.23942 0,0.23942 0,0.23942 -0.0798,0.0798 -0.0798,0.0798 -0.0798,0.0798 -1.51635,2.55384 -2.79326,4.78844 -7.82111,6.30477 -1.51634,0.47885 -3.11248,0.79808 -4.78843,0.79808 z"
       id="path118" />
    <path
       style="fill:#99404b;fill-opacity:1;fill-rule:nonzero;stroke:none;stroke-width:0.239421"
       d="m 169.86358,103.7034 c 2.87306,0 6.38457,1.35672 9.81628,3.83074 3.91056,2.63365 7.50188,6.46439 10.53456,11.01339 3.19229,4.86825 5.42688,10.21532 6.22496,15.08356 0.71827,4.22979 0.31923,7.90092 -1.03749,10.29514 -0.63847,0.63845 -0.63847,0.63845 -0.63847,0.63845 0,0.39904 0,0.39904 0,0.39904 -1.35671,2.3144 -2.55383,3.99036 -6.7836,5.34708 -1.35673,0.47885 -2.79326,0.71826 -4.30959,0.71826 -3.59133,0 -7.34227,-1.27691 -10.93359,-3.67112 -3.75094,-2.47403 -7.18265,-6.14516 -10.05571,-10.61436 0,0 0,0 0,0 0,-0.0798 0,-0.0798 0,-0.0798 -3.67114,-5.26728 -5.74612,-10.85379 -6.14515,-16.12106 -0.39905,-4.94804 0.79807,-9.25763 3.59132,-12.44992 2.95286,-3.51153 5.02786,-3.83076 7.8211,-4.22979 0.23942,0 0.39904,0 0.55865,0 0.0798,-0.0798 0.0798,-0.0798 0.0798,-0.0798 0,0 0,0 0,0 0.39903,0 0.87788,-0.0798 1.27691,-0.0798 0,0 0,0 0,0 m 0,-3.19228 c -0.55865,0 -1.19711,0.0798 -1.75576,0.15962 -3.19229,0.47884 -6.38458,0.63845 -10.45474,5.34707 -6.78362,7.90092 -5.58651,20.82969 2.31441,32.48154 6.30477,9.73648 15.16336,15.72202 23.70274,15.72202 1.75575,0 3.59132,-0.31923 5.26727,-0.87787 5.90574,-1.83558 7.34227,-4.70864 9.01821,-7.50188 0,0 0,0 0,0 3.99036,-6.22497 2.075,-18.19605 -5.10765,-29.04983 -6.624,-10.05571 -15.80183,-16.28067 -22.98448,-16.28067 z"
       id="path120" />
    <path
       style="fill:#f9a7b4;fill-opacity:1;fill-rule:nonzero;stroke:none;stroke-width:0.239421"
       d="m 191.89036,117.35044 c 7.50188,11.41241 8.45958,23.94215 2.1548,28.17193 -6.38457,4.14998 -17.55758,-1.67595 -25.05946,-13.00858 -7.50188,-11.33262 -8.45956,-23.94215 -2.07499,-28.09213 6.30477,-4.22978 17.55759,1.59615 24.97965,12.92878 z"
       id="path122" />
    <path
       style="fill:#ffded4;fill-opacity:1;fill-rule:nonzero;stroke:none;stroke-width:0.239421"
       d="m 180.87697,114.15814 c 1.27692,1.99517 1.43653,4.14997 0.39904,4.86823 -1.1173,0.71827 -3.03268,-0.23941 -4.30959,-2.23459 -1.27692,-1.91538 -1.51634,-4.14998 -0.39904,-4.86824 1.1173,-0.71827 3.03268,0.31922 4.30959,2.2346 z"
       id="path124" />
    <path
       style="fill:#ffded4;fill-opacity:1;fill-rule:nonzero;stroke:none;stroke-width:0.239421"
       d="m 180.0789,128.36383 c 0.55865,0.79807 0.63846,1.75576 0.15962,2.07498 -0.47885,0.31922 -1.27692,-0.15962 -1.83557,-0.95768 -0.55865,-0.87788 -0.63846,-1.75576 -0.15962,-2.07499 0.47885,-0.31923 1.27692,0.0798 1.83557,0.95769 z"
       id="path126" />
    <path
       style="fill:#ffded4;fill-opacity:1;fill-rule:nonzero;stroke:none;stroke-width:0.239421"
       d="m 191.1721,127.0869 c 0.79808,1.27693 0.87788,2.63364 0.23943,3.11248 -0.71827,0.39905 -1.91538,-0.23941 -2.79326,-1.43653 -0.79807,-1.27691 -0.87788,-2.63362 -0.15961,-3.03267 0.63846,-0.47884 1.83557,0.15962 2.71344,1.35672 z"
       id="path128" />
    <path
       style="fill:#99404b;fill-opacity:1;fill-rule:nonzero;stroke:none;stroke-width:0.239421"
       d="m 197.95571,145.84159 c 0,0 0,0 0,0 -1.67594,2.79326 -3.11247,5.66632 -9.01821,7.50188 -7.18265,2.31441 -15.24318,-0.31923 -22.02679,-6.54418 6.86343,4.38939 18.8345,5.50669 26.25658,2.87306 0.71826,-0.23943 1.43653,-0.55865 2.07498,-0.9577 1.1173,-0.71825 1.99518,-1.67594 2.71344,-2.87306 z"
       id="path130" />
    <path
       style="fill:none;stroke:#99404b;stroke-width:5.42689px;stroke-linecap:round;stroke-linejoin:round;stroke-miterlimit:4;stroke-dasharray:none;stroke-opacity:1"
       d="m 69.944945,91.732317 v 0"
       id="path132" />
    <path
       style="fill:#543418;fill-opacity:1;fill-rule:nonzero;stroke:none;stroke-width:0.239421"
       d="M 253.82076,134.98782 Z"
       id="path134" />
    <path
       style="fill:none;stroke:none;stroke-width:0.239421"
       d="m 253.82076,134.98782 v 0"
       id="path136" />
    <path
       style="fill:#996f3a;fill-opacity:1;fill-rule:nonzero;stroke:none;stroke-width:0.239421"
       d="m 228.84111,181.11639 c -4.14998,0 -6.78362,-2.79325 -6.78362,-7.26246 0,-1.83557 0,-1.83557 0,-1.83557 0,-0.39903 -0.31922,-0.71825 -0.63845,-0.71825 -9.81629,0 -9.81629,0 -9.81629,0 -1.1173,0 -1.99518,-0.87788 -1.99518,-1.91538 0,-2.63364 0,-2.63364 0,-2.63364 0,-3.67114 3.03267,-6.624 6.7038,-6.624 25.05947,0 25.05947,0 25.05947,0 3.67113,0 6.7038,2.95286 6.7038,6.624 0,2.63364 0,2.63364 0,2.63364 0,1.0375 -0.87788,1.91538 -1.99517,1.91538 -9.81629,0 -9.81629,0 -9.81629,0 -0.31923,0 -0.63846,0.31922 -0.63846,0.71825 0,1.83557 0,1.83557 0,1.83557 0,4.4692 -2.63364,7.26246 -6.78361,7.26246 z"
       id="path138" />
    <path
       style="fill:#543418;fill-opacity:1;fill-rule:nonzero;stroke:none;stroke-width:0.239421"
       d="m 241.37084,160.76554 c 3.35191,0 6.06534,2.71346 6.06534,5.98555 0,2.63364 0,2.63364 0,2.63364 0,0.71826 -0.63844,1.27691 -1.35671,1.27691 -9.81629,0 -9.81629,0 -9.81629,0 -0.71826,0 -1.27692,0.63847 -1.27692,1.35673 0,1.83557 0,1.83557 0,1.83557 0,4.14997 -2.39421,6.62399 -6.14515,6.62399 -3.75094,0 -6.14516,-2.47402 -6.14516,-6.62399 0,-1.83557 0,-1.83557 0,-1.83557 0,-0.71826 -0.55865,-1.35673 -1.27691,-1.35673 -9.81629,0 -9.81629,0 -9.81629,0 -0.71827,0 -1.35672,-0.55864 -1.35672,-1.27691 0,-2.63364 0,-2.63364 0,-2.63364 0,-3.2721 2.71344,-5.98555 6.06534,-5.98555 25.05947,0 25.05947,0 25.05947,0 m 0,-1.27691 c -25.05947,0 -25.05947,0 -25.05947,0 -4.07016,0 -7.34225,3.27209 -7.34225,7.26246 0,2.63364 0,2.63364 0,2.63364 0,1.43653 1.1971,2.55382 2.63363,2.55382 9.81629,0 9.81629,0 9.81629,0 0,0 0,0.0798 0,0.0798 0,1.83557 0,1.83557 0,1.83557 0,4.78844 2.95286,7.90091 7.42207,7.90091 4.4692,0 7.42207,-3.11248 7.42207,-7.90091 0,-1.83557 0,-1.83557 0,-1.83557 0,0 0,-0.0798 0,-0.0798 9.81629,0 9.81629,0 9.81629,0 1.43653,0 2.63364,-1.1173 2.63364,-2.55382 0,-2.63364 0,-2.63364 0,-2.63364 0,-3.99037 -3.2721,-7.26246 -7.34227,-7.26246 z"
       id="path140" />
    <path
       style="fill:#ffded4;fill-opacity:1;fill-rule:nonzero;stroke:none;stroke-width:0.239421"
       d="m 247.43618,169.1453 c 0,0.23942 0,0.23942 0,0.23942 0,0.71827 -0.63844,1.27692 -1.35671,1.27692 -9.81629,0 -9.81629,0 -9.81629,0 -0.71826,0 -1.27692,0.63846 -1.27692,1.35672 0,1.83557 0,1.83557 0,1.83557 0,4.14997 -2.39421,6.624 -6.14515,6.624 -3.75094,0 -6.14516,-2.47402 -6.14516,-6.624 0,-1.83557 0,-1.83557 0,-1.83557 0,-0.71825 -0.55865,-1.35672 -1.27691,-1.35672 -9.81629,0 -9.81629,0 -9.81629,0 -0.71827,0 -1.35672,-0.55865 -1.35672,-1.27692 0,-0.23942 0,-0.23942 0,-0.23942 0,-3.3519 2.71344,-5.98554 6.06534,-5.98554 25.05947,0 25.05947,0 25.05947,0 3.35191,0 6.06534,2.63365 6.06534,5.98554 z"
       id="path142" />
    <path
       style="fill:#996f3a;fill-opacity:1;fill-rule:nonzero;stroke:none;stroke-width:0.239421"
       d="M 214.07677,160.52612 Z"
       id="path144" />
    <path
       style="fill:none;stroke:#543418;stroke-width:1.27691px;stroke-linecap:butt;stroke-linejoin:miter;stroke-miterlimit:10;stroke-dasharray:none;stroke-opacity:1"
       d="m 214.07677,160.52612 v 0"
       id="path146" />
  </g>
</svg>
